<?xml version="1.0" encoding="UTF-8" standalone="no"?>
<svg
   sodipodi:docname="cdmx-red.svg"
   inkscape:version="1.3.2 (091e20e, 2023-11-25, custom)"
   id="svg8"
   version="1.1"
   viewBox="0 3 85.2732 99.99999"
   height="100mm"
   width="85.273201mm"
   xml:space="preserve"
   xmlns:inkscape="http://www.inkscape.org/namespaces/inkscape"
   xmlns:sodipodi="http://sodipodi.sourceforge.net/DTD/sodipodi-0.dtd"
   xmlns="http://www.w3.org/2000/svg"
   xmlns:svg="http://www.w3.org/2000/svg"
   xmlns:rdf="http://www.w3.org/1999/02/22-rdf-syntax-ns#"
   xmlns:cc="http://creativecommons.org/ns#"
   xmlns:dc="http://purl.org/dc/elements/1.1/"><defs
     id="defs2"><clipPath
       clipPathUnits="userSpaceOnUse"
       id="clipPath34"><path
         d="M 0,85.120003 V 541.12 H 810.56 V 85.120003 Z"
         clip-rule="evenodd"
         id="path32" /></clipPath><clipPath
       clipPathUnits="userSpaceOnUse"
       id="clipPath50"><path
         d="m 0,512.96002 h 770.71997 v 12.95996 H 0 Z"
         clip-rule="evenodd"
         id="path48" /></clipPath><clipPath
       clipPathUnits="userSpaceOnUse"
       id="clipPath60"><path
         d="M 0,85.120003 V 541.12 H 810.56 V 85.120003 Z"
         clip-rule="evenodd"
         id="path58" /></clipPath><clipPath
       clipPathUnits="userSpaceOnUse"
       id="clipPath88"><path
         d="M 0,85.120003 V 541.12 H 810.56 V 85.120003 Z"
         clip-rule="evenodd"
         id="path86" /></clipPath><clipPath
       clipPathUnits="userSpaceOnUse"
       id="clipPath936"><path
         d="M 0,85.120003 V 541.12 H 810.56 V 85.120003 Z"
         clip-rule="evenodd"
         id="path934" /></clipPath><clipPath
       clipPathUnits="userSpaceOnUse"
       id="clipPath984"><path
         d="M 0,85.120003 V 541.12 H 810.56 V 85.120003 Z"
         clip-rule="evenodd"
         id="path982" /></clipPath><clipPath
       clipPathUnits="userSpaceOnUse"
       id="clipPath1032"><path
         d="M 0,85.120003 V 541.12 H 810.56 V 85.120003 Z"
         clip-rule="evenodd"
         id="path1030" /></clipPath><clipPath
       clipPathUnits="userSpaceOnUse"
       id="clipPath1148"><path
         d="M 0,85.120003 V 541.12 H 810.56 V 85.120003 Z"
         clip-rule="evenodd"
         id="path1146" /></clipPath><clipPath
       clipPathUnits="userSpaceOnUse"
       id="clipPath1196"><path
         d="M 0,85.120003 V 541.12 H 810.56 V 85.120003 Z"
         clip-rule="evenodd"
         id="path1194" /></clipPath><clipPath
       clipPathUnits="userSpaceOnUse"
       id="clipPath1244"><path
         d="M 0,85.120003 V 541.12 H 810.56 V 85.120003 Z"
         clip-rule="evenodd"
         id="path1242" /></clipPath><clipPath
       clipPathUnits="userSpaceOnUse"
       id="clipPath1268"><path
         d="M 0,85.120003 V 541.12 H 810.56 V 85.120003 Z"
         clip-rule="evenodd"
         id="path1266" /></clipPath><clipPath
       clipPathUnits="userSpaceOnUse"
       id="clipPath1304"><path
         d="M 0,85.120003 V 541.12 H 810.56 V 85.120003 Z"
         clip-rule="evenodd"
         id="path1302" /></clipPath><clipPath
       clipPathUnits="userSpaceOnUse"
       id="clipPath1324"><path
         d="M 0,85.120003 V 541.12 H 810.56 V 85.120003 Z"
         clip-rule="evenodd"
         id="path1322" /></clipPath><clipPath
       clipPathUnits="userSpaceOnUse"
       id="clipPath1352"><path
         d="M 0,85.120003 V 541.12 H 810.56 V 85.120003 Z"
         clip-rule="evenodd"
         id="path1350" /></clipPath></defs><sodipodi:namedview
     inkscape:window-maximized="1"
     inkscape:window-y="-8"
     inkscape:window-x="-8"
     inkscape:window-height="1017"
     inkscape:window-width="1920"
     fit-margin-left="3"
     fit-margin-bottom="3"
     fit-margin-right="3"
     fit-margin-top="3"
     showgrid="false"
     inkscape:document-rotation="0"
     inkscape:current-layer="g2900"
     inkscape:document-units="mm"
     inkscape:cy="216.07143"
     inkscape:cx="-31.785714"
     inkscape:zoom="1.4"
     inkscape:pageshadow="2"
     inkscape:pageopacity="0.0"
     borderopacity="1.0"
     bordercolor="#666666"
     pagecolor="#808080"
     id="base"
     inkscape:showpageshadow="2"
     inkscape:pagecheckerboard="true"
     inkscape:deskcolor="#d1d1d1" /><metadata
     id="metadata5"><rdf:RDF><cc:Work
         rdf:about=""><dc:format>image/svg+xml</dc:format><dc:type
           rdf:resource="http://purl.org/dc/dcmitype/StillImage" /></cc:Work></rdf:RDF></metadata><g
     transform="translate(-240.02447,-92.078087)"
     id="layer1"
     inkscape:groupmode="layer"
     inkscape:label="Capa 1"><g
       transform="translate(105.57146,10.423512)"
       id="g3014"><g
         id="g2900"><g
           transform="matrix(1.4845609,0,0,1.4845609,165.09433,139.99898)"
           id="g1042"
           style="fill:#450a0a;fill-opacity:1"><path
             id="path1044"
             style="fill:#450a0a;fill-opacity:1;fill-rule:nonzero;stroke:none"
             d="M 0,0 C 0.32,0.64 0.96,0.8 1.6,0.8 2.56,0.8 3.04,0 3.04,0 l 15.519999,-20 c 1.280001,-1.280001 2.560002,-0.16 2.560002,-0.16 1.279999,1.280001 0.32,2.4 0.32,2.4 L 18.08,-13.28 v 0 c -0.32,0.32 -0.639999,0.8 -0.639999,1.12 0,0.48 0.159999,0.96 0.479999,1.12 v 0 L 21.440001,-6.56 32.48,-20.48 28,-26.08 27.200001,-27.200001 C 26.559999,-28.16 24.959999,-28.48 24.959999,-28.48 H 18.24 c -1.600001,0 -2.56,1.279999 -2.56,1.279999 L -2.88,-3.52 Z" /></g><g
           transform="matrix(1.4845609,0,0,1.4845609,163.90672,121.94672)"
           id="g1046"
           style="fill:#450a0a;fill-opacity:1"><path
             id="path1048"
             style="fill:#450a0a;fill-opacity:1;fill-rule:nonzero;stroke:none"
             d="M 0,0 -4.32,-5.6 C -5.28,-7.04 -4,-8 -4,-8 c 1.76,-0.96 2.72,0.48 2.72,0.48 l 3.52,4.64 4.32,-5.6 -4.96,-6.4 c -1.12,-1.6 -2.88,-1.44 -2.88,-1.44 h -6.08 c -1.76,0 -2.72,1.28 -2.72,1.28 L -15.2,-8.48 -4.32,5.6 Z" /></g><g
           transform="matrix(1.4845609,0,0,1.4845609,189.32237,129.31017)"
           id="g1050"
           style="fill:#450a0a;fill-opacity:1"><path
             id="path1052"
             style="fill:#450a0a;fill-opacity:1;fill-rule:nonzero;stroke:none"
             d="m 0,0 c 0,0 -0.64,-0.8 -1.6,-0.8 -0.96,0 -1.44,0.64 -1.44,0.64 L -18.719999,20 c -1.120001,1.440001 -2.560002,0.32 -2.560002,0.32 -1.279998,-1.279999 -0.16,-2.56 -0.16,-2.56 L -17.92,13.28 v 0 c 0.16,-0.32 0.479999,-0.8 0.479999,-1.28 0,-0.32 -0.159999,-0.8 -0.479999,-1.12 v 0 L -21.440001,6.56 -32.48,20.639999 -26.24,28.48 h 9.600001 L 2.88,3.68 Z" /></g><g
           transform="matrix(1.4845609,0,0,1.4845609,190.51004,147.1249)"
           id="g1054"
           style="fill:#450a0a;fill-opacity:1"><path
             id="path1056"
             style="fill:#450a0a;fill-opacity:1;fill-rule:nonzero;stroke:none"
             d="M 0,0 4.32,5.76 C 5.44,7.2 4.16,8.32 4.16,8.32 2.4,9.44 1.44,7.68 1.44,7.68 l -3.84,-4.8 -4.32,5.6 6.24,8 h 9.6 L 15.36,8.64 4.32,-5.44 Z" /></g><g
           transform="matrix(1.4845609,0,0,1.4845609,213.07538,128.12249)"
           id="g1058"
           style="fill:#450a0a;fill-opacity:1"><path
             id="path1060"
             style="fill:#450a0a;fill-opacity:1;fill-rule:nonzero;stroke:none"
             d="M 0,0 C -2.4,0 -4.48,2.08 -4.48,4.48 -4.48,6.88 -2.4,8.8 0,8.8 2.4,8.8 4.48,6.88 4.48,4.48 4.48,2.08 2.4,0 0,0 Z m 0,6.88 c -1.28,0 -2.4,-1.12 -2.4,-2.4 0,-1.28 1.12,-2.4 2.4,-2.4 1.28,0 2.4,1.12 2.4,2.4 0,1.28 -1.12,2.4 -2.4,2.4 z" /></g><g
           transform="matrix(1.4845609,0,0,1.4845609,177.20835,97.718711)"
           id="g1062"
           style="fill:#450a0a;fill-opacity:1"><path
             id="path1064"
             style="fill:#450a0a;fill-opacity:1;fill-rule:nonzero;stroke:none"
             d="M 0,0 C 2.4,0 4.48,-1.92 4.48,-4.32 4.48,-6.72 2.4,-8.8 0,-8.8 c -2.4,0 -4.48,2.08 -4.48,4.48 C -4.48,-1.92 -2.4,0 0,0 Z m 0,-6.72 c 1.28,0 2.4,1.12 2.4,2.4 0,1.28 -1.12,2.4 -2.4,2.4 -1.28,0 -2.4,-1.12 -2.4,-2.4 0,-1.28 1.12,-2.4 2.4,-2.4 z" /></g><g
           transform="matrix(1.4845609,0,0,1.4845609,147.75468,134.77334)"
           id="g1066"
           style="fill:#450a0a;fill-opacity:1"><path
             id="path1068"
             style="fill:#450a0a;fill-opacity:1;fill-rule:nonzero;stroke:none"
             d="m 0,0 c 0,-2.56 -1.92,-4.48 -4.48,-4.48 -2.4,0 -4.48,1.92 -4.48,4.48 0,2.4 2.08,4.32 4.48,4.32 C -1.92,4.32 0,2.4 0,0 Z m -6.72,0 c 0,-1.28 0.96,-2.4 2.24,-2.4 1.28,0 2.4,1.12 2.4,2.4 0,1.28 -1.12,2.24 -2.4,2.24 -1.28,0 -2.24,-0.96 -2.24,-2.24 z" /></g><g
           transform="matrix(1.4845609,0,0,1.4845609,177.20835,171.59044)"
           id="g1070"
           style="fill:#450a0a;fill-opacity:1"><path
             id="path1072"
             style="fill:#450a0a;fill-opacity:1;fill-rule:nonzero;stroke:none"
             d="M 0,0 C -2.4,0 -4.48,1.92 -4.48,4.48 -4.48,6.88 -2.4,8.8 0,8.8 2.4,8.8 4.48,6.88 4.48,4.48 4.48,1.92 2.4,0 0,0 Z m 0,6.72 c -1.28,0 -2.4,-0.96 -2.4,-2.24 0,-1.44 1.12,-2.4 2.4,-2.4 1.28,0 2.4,0.96 2.4,2.4 0,1.28 -1.12,2.24 -2.4,2.24 z" /></g></g></g></g></svg>
