<?xml version="1.0" encoding="UTF-8" standalone="no"?>
<!-- Uploaded to: SVG Repo, www.svgrepo.com, Generator: SVG Repo Mixer Tools -->

<svg
   width="800px"
   height="800px"
   viewBox="0 0 24 24"
   fill="none"
   version="1.1"
   id="svg4"
   sodipodi:docname="money-bag.svg"
   inkscape:version="1.3.2 (091e20e, 2023-11-25, custom)"
   xmlns:inkscape="http://www.inkscape.org/namespaces/inkscape"
   xmlns:sodipodi="http://sodipodi.sourceforge.net/DTD/sodipodi-0.dtd"
   xmlns="http://www.w3.org/2000/svg"
   xmlns:svg="http://www.w3.org/2000/svg">
  <defs
     id="defs4" />
  <sodipodi:namedview
     id="namedview4"
     pagecolor="#ffffff"
     bordercolor="#000000"
     borderopacity="0.25"
     inkscape:showpageshadow="2"
     inkscape:pageopacity="0.0"
     inkscape:pagecheckerboard="0"
     inkscape:deskcolor="#d1d1d1"
     inkscape:zoom="0.36283417"
     inkscape:cx="-111.62124"
     inkscape:cy="114.37732"
     inkscape:window-width="1920"
     inkscape:window-height="1017"
     inkscape:window-x="-8"
     inkscape:window-y="-8"
     inkscape:window-maximized="1"
     inkscape:current-layer="svg4" />
  <path
     d="m 12.307882,17.665745 c -0.117355,-0.257826 -0.360365,-0.445951 -0.654464,-0.47938 -0.249055,-0.02845 -0.492894,-0.08179 -0.72476,-0.158725 -0.10396,-0.03497 -0.201519,-0.07314 -0.291847,-0.114037 l 0.150073,-0.409084 c 0.105976,0.0473 0.215151,0.09056 0.326936,0.129684 l 0.0046,0.0016 0.0047,0.0015 c 0.358704,0.11854 0.71172,0.178641 1.048968,0.178641 0.338671,0 0.58417,-0.0454 0.772769,-0.142724 l 0.01126,-0.0058 0.01102,-0.0064 c 0.285684,-0.163942 0.449626,-0.445714 0.449626,-0.773243 0,-0.363447 -0.196067,-0.665133 -0.538058,-0.828126 -0.172002,-0.08369 -0.416315,-0.163587 -0.768263,-0.25107 -0.360957,-0.09128 -0.664184,-0.188124 -0.899369,-0.287344 -0.171885,-0.07776 -0.321009,-0.201874 -0.455435,-0.37933 -0.115696,-0.158371 -0.174255,-0.396519 -0.174255,-0.708163 0,-0.376013 0.105857,-0.686352 0.323735,-0.948802 0.193933,-0.229969 0.469303,-0.386206 0.838914,-0.473808 0.274185,-0.06496 0.488033,-0.260672 0.58417,-0.513401 0.108701,0.256167 0.339975,0.446662 0.627792,0.492538 0.240401,0.03829 0.461124,0.09934 0.659562,0.18196 l -0.1381,0.400906 c -0.374708,-0.150429 -0.743489,-0.226414 -1.100178,-0.226414 -1.18458,0 -1.244562,0.817221 -1.244562,0.981045 0,0.355148 0.191799,0.652923 0.526203,0.817102 l 0.0094,0.0046 0.0095,0.0043 c 0.16892,0.07539 0.40861,0.148059 0.754513,0.228666 0.357638,0.08085 0.655887,0.173425 0.890242,0.276082 l 0.0049,0.0021 0.0049,0.002 c 0.174019,0.07243 0.323261,0.193341 0.456264,0.36973 l 0.0021,0.0028 0.0021,0.0029 c 0.116289,0.15031 0.175322,0.382769 0.175322,0.690976 0,0.355741 -0.103012,0.656835 -0.314964,0.920588 -0.183857,0.228784 -0.440497,0.387155 -0.784859,0.484121 -0.265887,0.07491 -0.472148,0.278216 -0.560461,0.532011 z"
     fill="#000000"
     id="path1"
     style="stroke-width:1.18541" />
  <path
     d="m 12.60779,18.730361 h -0.570774 c -0.127668,0 -0.231155,-0.106093 -0.231155,-0.237082 v -0.475942 c 0,-0.125179 -0.09495,-0.228072 -0.216336,-0.241942 -0.289004,-0.03283 -0.568523,-0.09412 -0.838678,-0.183738 -0.262449,-0.08843 -0.489823,-0.193221 -0.682119,-0.314726 -0.08837,-0.05583 -0.1205204,-0.169158 -0.08399,-0.268732 L 10.376258,15.94062 c 0.05275,-0.143672 0.222858,-0.198675 0.353845,-0.124349 0.176864,0.100167 0.367003,0.185871 0.570182,0.256996 0.302873,0.100044 0.593534,0.150073 0.871868,0.150073 0.239335,0 0.410389,-0.02644 0.512926,-0.07942 0.102539,-0.05891 0.153867,-0.144264 0.153867,-0.256048 0,-0.129447 -0.0684,-0.226532 -0.205194,-0.291255 -0.131818,-0.06473 -0.351711,-0.135373 -0.659325,-0.211832 -0.39569,-0.100045 -0.725352,-0.206025 -0.989105,-0.317809 -0.263753,-0.117711 -0.493367,-0.306072 -0.688722,-0.564966 -0.195404,-0.26482 -0.293081,-0.620917 -0.293081,-1.068171 0,-0.517906 0.153866,-0.962198 0.461527,-1.332993 0.277386,-0.328832 0.660273,-0.551216 1.148899,-0.66703 0.110006,-0.02608 0.191917,-0.123993 0.191917,-0.23969 V 10.66958 c 0,-0.130987 0.103486,-0.237082 0.231155,-0.237082 h 0.570774 c 0.127668,0 0.231155,0.106095 0.231155,0.237082 v 0.494552 c 0,0.121149 0.08914,0.222028 0.205787,0.240638 0.428052,0.06816 0.804182,0.197253 1.128272,0.387274 0.09198,0.05394 0.128499,0.168683 0.09317,0.271103 l -0.366409,1.063193 c -0.04849,0.140945 -0.210292,0.200572 -0.34045,0.13324 -0.41276,-0.213374 -0.80667,-0.320061 -1.181971,-0.320061 -0.444529,0 -0.666793,0.129448 -0.666793,0.388341 0,0.123638 0.06603,0.217759 0.197845,0.282601 0.131936,0.05879 0.349221,0.12352 0.652093,0.19417 0.390711,0.08832 0.720492,0.191206 0.989105,0.308917 0.268615,0.111785 0.500599,0.297183 0.696073,0.556194 0.200215,0.258894 0.300383,0.612027 0.300383,1.059283 0,0.494315 -0.149007,0.92687 -0.447019,1.297667 -0.259485,0.323142 -0.618783,0.549318 -1.077654,0.678646 -0.105502,0.02975 -0.182435,0.125535 -0.182435,0.237674 v 0.550267 c 0,0.130989 -0.103487,0.237082 -0.231155,0.237082 z"
     fill="#000000"
     id="path2"
     style="stroke-width:1.18541" />
  <path
     fill-rule="evenodd"
     clip-rule="evenodd"
     d="m 9.7792266,3.3200439 h 5.0045014 c 1.281782,0 0.577886,1.9725206 0.05892,3.1757108 L 14.252072,7.8755708 14.172296,8.06168 c 0.559395,-0.027846 1.112625,0.1310351 1.576476,0.4528263 1.735321,1.6285157 3.143705,3.5891817 4.14585,5.7717567 0.390473,0.807026 0.545407,1.712679 0.446069,2.607899 -0.119253,2.281794 -1.904122,4.100094 -4.129609,4.207018 H 8.3518521 C 6.1257726,20.997456 4.3382588,19.181054 4.2164936,16.898905 4.1171444,16.003684 4.2720656,15.098031 4.6626222,14.291004 5.6659406,12.106295 7.0762691,10.143851 8.8141617,8.5145063 9.2780952,8.1927151 9.8312308,8.0338348 10.390602,8.06168 L 10.29814,7.8471209 9.7202889,6.4957547 C 9.2036515,5.2925645 8.496318,3.3200439 9.7792266,3.3200439 Z"
     stroke="#000000"
     stroke-width="1.77811"
     stroke-linecap="round"
     stroke-linejoin="round"
     id="path3" />
  <path
     d="m 14.172293,8.9507368 c 0.490997,0 0.889058,-0.3980485 0.889058,-0.8890568 0,-0.4910082 -0.398061,-0.8890567 -0.889058,-0.8890567 z M 10.390602,7.1726233 c -0.4909848,0 -0.8890331,0.3980485 -0.8890331,0.8890567 0,0.4910083 0.3980483,0.8890568 0.8890331,0.8890568 z M 17.34836,7.6466446 C 17.773803,7.4015495 17.920083,6.8579565 17.674941,6.4324894 17.429797,6.0070224 16.886287,5.8608022 16.460844,6.1058973 Z m -3.096289,0.2289262 0.171529,0.8723544 0.0027,-5.098e-4 z m -3.953931,-0.028449 0.184094,-0.8698412 -0.0081,-0.00163 z M 8.0884187,6.0981329 C 7.6586606,5.8606362 7.1177466,6.016482 6.8802499,6.4462283 6.6427413,6.8759865 6.798587,7.4169005 7.2283453,7.654409 Z m 6.0838743,1.0744904 h -3.781691 v 1.7781135 h 3.781691 z m 2.288551,-1.066726 c -0.743252,0.4281224 -1.54767,0.7310537 -2.382909,0.8978289 l 0.348273,1.7436892 C 15.451942,8.5425768 16.438559,8.1707732 17.34836,7.6466446 Z m -2.380301,0.8973191 c -1.18944,0.2339049 -2.412071,0.2251092 -3.598309,-0.025889 l -0.368117,1.7395877 c 1.420523,0.3005724 2.884977,0.3111225 4.309483,0.031011 z m -3.60637,-0.027573 C 9.6411502,6.8074699 8.8369453,6.511817 8.0884187,6.0981329 L 7.2283453,7.654409 c 0.9066126,0.5010369 1.8821094,0.8599076 2.8938677,1.0641891 z"
     fill="#000000"
     id="path4"
     style="stroke-width:1.18541" />
</svg>
